<?xml version="1.0" encoding="UTF-8"?><svg id="Layer_1" xmlns="http://www.w3.org/2000/svg" width="1387.5" height="208.12" viewBox="0 0 1387.5 208.12"><defs><style>.cls-1{stroke-width:9.74px;}.cls-1,.cls-2,.cls-3,.cls-4,.cls-5{stroke:#fff;stroke-miterlimit:10;}.cls-1,.cls-3,.cls-5{fill:none;}.cls-6{isolation:isolate;}.cls-2,.cls-7,.cls-4{fill:#fff;}.cls-2,.cls-3{stroke-width:.92px;}.cls-4{stroke-width:4.15px;}.cls-5{stroke-width:1.84px;}</style></defs><polyline class="cls-2" points="223.63 87.64 255.13 95.21 171.8 93.67 147.06 93.23 172.61 86.06"/><line class="cls-3" x1="224.07" y1="79.44" x2="223.63" y2="87.64"/><polyline class="cls-2" points="172.61 86.06 171.39 69.48 224.84 64.7 224.07 79.44"/><path class="cls-5" d="M175,130.32l-3.2-36.65,3.2,36.65Z"/><polygon class="cls-2" points="147.06 131.72 183.16 130.32 186.76 146.46 217.45 171.6 173.38 161.6 147.06 131.72"/><polyline class="cls-5" points="221.31 94.26 222.31 121.79 215.65 122.01 215.65 141.97 208.08 141.97 208.08 152.67 204.55 152.67 204.55 128.85 211.87 118.41"/><polyline class="cls-5" points="191.54 120.72 197.71 126.24 197.71 152.67 201.1 152.67 201.1 126.24 204.55 120.72"/><polyline class="cls-5" points="193.34 152.67 193.34 126.27 183.16 119.73"/><line class="cls-5" x1="189.55" y1="108.08" x2="196.06" y2="102.68"/><line class="cls-5" x1="205.95" y1="105.03" x2="201.32" y2="102.34"/><circle class="cls-5" cx="181.02" cy="118.22" r="2.68"/><circle class="cls-5" cx="213.56" cy="116.06" r="2.68"/><circle class="cls-5" cx="205.91" cy="118.22" r="2.68"/><circle class="cls-5" cx="189.74" cy="118.22" r="2.68"/><circle class="cls-5" cx="198.85" cy="101.76" r="2.68"/><circle class="cls-5" cx="208.59" cy="106.35" r="2.68"/><circle class="cls-5" cx="187.46" cy="109" r="2.68"/><circle class="cls-1" cx="197.71" cy="116.06" r="76.68"/><polygon class="cls-4" points="143.97 172.37 121.03 189.94 135.52 204.94 154.85 179.65 143.97 172.37"/><g class="cls-6"><g class="cls-6"><path class="cls-7" d="M106.12,134.28c0,23.77-4.65,40.23-13.96,49.37-9.31,9.15-23.19,13.72-41.64,13.72-24.17,0-41.02-12.61-50.52-37.83l18.98-8.22c7.01,19.18,18.25,28.77,33.72,28.77,9.83,0,17.77-2.88,23.81-8.64,6.04-5.76,9.07-17.51,9.07-35.23V4.95h20.55v129.33Z"/></g><g class="cls-6"><path class="cls-7" d="M289.6,4.95h19.1v70.71c3.87-4.03,9.31-7.35,16.32-9.97,7.01-2.62,14.63-3.93,22.85-3.93,16.68,0,29.47,5.8,38.37,17.4,8.9,11.61,13.36,27.56,13.36,47.87,0,21.35-5.2,38.24-15.59,50.65s-27.88,18.61-52.45,18.61c-5.72,0-12.61-.3-20.67-.91-8.06-.6-15.15-1.26-21.27-1.99V4.95ZM308.7,176.95c6.45,3.3,15.35,4.95,26.71,4.95,15.39,0,26.57-5.26,33.54-15.77,6.97-10.51,10.46-22.82,10.46-36.93,0-16.6-3.22-29.27-9.67-38.01-6.45-8.74-15.31-13.12-26.59-13.12-6.77,0-13.23,1.01-19.4,3.02-6.16,2.02-11.18,4.47-15.05,7.37v88.48Z"/><path class="cls-7" d="M436.7,155.92c5.72,6.36,12.73,11.96,21.03,16.8,8.3,4.84,17.85,7.25,28.65,7.25,12.41,0,22.32-2.9,29.73-8.7,7.41-5.8,11.12-14.14,11.12-25.02s-3.4-18.53-10.21-23.69c-6.81-5.16-16.98-10.23-30.52-15.23l-10.39-4.35c-14.59-5.16-26.75-12.09-36.5-20.79s-14.63-20.23-14.63-34.56,5.62-26.17,16.86-34.75c11.24-8.58,25.36-12.87,42.37-12.87,13.05,0,23.93,1.95,32.63,5.86,8.7,3.91,16.68,9.53,23.93,16.86l-11.97,13.66c-5.24-4.83-11.34-9.2-18.31-13.11-6.97-3.91-15.61-5.86-25.92-5.86-11.04,0-20.25,2.62-27.62,7.86-7.37,5.24-11.06,11.96-11.06,20.19,0,10.07,4.13,17.95,12.39,23.62,8.26,5.68,16.74,10.17,25.44,13.48l17.89,7.5c18.45,6.93,30.96,14.36,37.53,22.3,6.57,7.94,9.85,18.35,9.85,31.25,0,17.16-6.04,30.42-18.13,39.76-12.09,9.35-26.95,14.02-44.6,14.02-7.17,0-13.76-.51-19.76-1.51-6-1.01-11.64-2.6-16.92-4.77-5.28-2.18-10.26-4.96-14.93-8.34-4.67-3.39-9.23-7.45-13.66-12.21l15.71-14.63Z"/><path class="cls-7" d="M575.94,4.95h19.1v162.69c0,4.91.97,8.26,2.9,10.03,1.93,1.77,5.32,2.66,10.15,2.66.64,0,1.59-.04,2.84-.12,1.25-.08,2.52-.2,3.81-.36l2.78,11.12c-1.45.65-3.06,1.29-4.84,1.93-1.77.65-3.63,1.23-5.56,1.75-1.93.52-3.87.92-5.8,1.21-1.93.28-3.75.42-5.44.42-6.29,0-11.18-2.01-14.69-6.04-3.51-4.03-5.26-10.03-5.26-18.01V4.95Z"/><path class="cls-7" d="M742.37,171.03c-5.72,7.57-12.67,13.72-20.85,18.43-8.18,4.71-18.88,7.07-32.09,7.07-17.08,0-30.82-6.06-41.22-18.19-10.39-12.13-15.59-29.23-15.59-51.31,0-19.26,4.71-34.95,14.14-47.08,9.43-12.13,23.25-18.19,41.46-18.19,15.39,0,27.56,4.23,36.5,12.69s13.98,20.27,15.11,35.42c.48,5.72.6,11.72.36,18.01h-87.51c0,14.42,3.3,26.81,9.91,37.17,6.61,10.36,15.63,15.53,27.08,15.53,8.3,0,15.55-1.73,21.75-5.2,6.2-3.46,11.92-8.62,17.16-15.47l13.78,11.12ZM687.98,76.75c-11.36,0-19.94,3.89-25.75,11.66-5.8,7.78-8.9,16.58-9.31,26.41h67.81c-.32-10.39-2.9-19.34-7.74-26.83-4.83-7.49-13.17-11.24-25.02-11.24Z"/><path class="cls-7" d="M791.32,63.81v88.6c0,8.78,2.19,15.47,6.59,20.06,4.39,4.59,10.13,6.89,17.22,6.89,9.18,0,17.28-1.27,24.29-3.81,7.01-2.54,12.61-5.86,16.8-9.97V63.81h19.1v113.5c0,5.24.56,10.92,1.69,17.04h-19.46c-.65-4.59-1.13-9.1-1.45-13.54-4.35,3.31-9.63,6.29-15.83,8.95-6.2,2.66-11.44,4.45-15.71,5.37-4.27.93-8.22,1.39-11.84,1.39-14.02,0-24.28-3.84-30.76-11.54-6.49-7.7-9.73-17.75-9.73-30.16V63.81h19.1Z"/><path class="cls-7" d="M900.22,63.81h18.86V30.82h19.1v32.99h31.79l-2.06,16.56h-29.73v75.42c0,7.5,1.23,13.5,3.69,18.01,2.46,4.51,6.3,6.77,11.54,6.77,2.82,0,6.36-.42,10.64-1.27,4.27-.85,7.09-1.47,8.46-1.87l1.45,16.56c-1.61.32-5.02.82-10.21,1.51-5.2.68-9.29,1.03-12.27,1.03-10.23,0-18.19-2.53-23.87-7.61s-8.52-14.46-8.52-28.16v-80.38h-18.86v-16.56Z"/><path class="cls-7" d="M999.58,4.95h19.1v68.89c4.35-2.58,10.09-5.24,17.22-7.98,7.13-2.74,15.21-4.11,24.23-4.11,13.7,0,24.19,3.95,31.49,11.85,7.29,7.9,10.94,18.57,10.94,32.03v88.72h-19.1l.12-87.63c0-9.27-2.3-16.48-6.89-21.64-4.59-5.16-11.77-7.74-21.52-7.74-6.12,0-12.41,1.05-18.85,3.14-6.45,2.1-12.33,4.55-17.65,7.37v106.49h-19.1V4.95Z"/></g><g class="cls-6"><path class="cls-7" d="M1262.89,4.95h19.94l62.85,189.4h-22.72l-20.18-64.55h-63.94l-20.31,64.55h-20.43L1262.89,4.95ZM1243.06,115.18h55.48l-27.19-86.54-28.28,86.54Z"/><path class="cls-7" d="M1366.95,194.35V4.95h20.55v189.4h-20.55Z"/></g></g></svg>