<?xml version="1.0" encoding="UTF-8"?><svg id="Layer_1" xmlns="http://www.w3.org/2000/svg" width="11.21cm" height="5.7cm" viewBox="0 0 317.81 161.58"><defs><style>.cls-1{stroke-width:7.74px;}.cls-1,.cls-2,.cls-3,.cls-4,.cls-5{stroke:#fff;stroke-miterlimit:10;}.cls-1,.cls-4,.cls-5{fill:none;}.cls-2{stroke-width:3.32px;}.cls-2,.cls-3,.cls-6{fill:#fff;}.cls-7{isolation:isolate;}.cls-3,.cls-4{stroke-width:.73px;}.cls-5{stroke-width:1.47px;}</style></defs><line class="cls-4" x1="178.2" y1="59.25" x2="177.86" y2="65.76"/><polyline class="cls-3" points="137.27 64.5 136.32 51.33 178.81 47.53 178.2 59.25"/><polyline class="cls-3" points="177.86 65.76 202.91 71.79 136.64 70.57 116.98 70.21 137.27 64.5"/><path class="cls-5" d="M139.18,99.71l-2.54-29.14,2.54,29.14Z"/><line class="cls-5" x1="150.75" y1="82" x2="155.93" y2="77.72"/><line class="cls-5" x1="163.79" y1="79.6" x2="160.1" y2="77.45"/><circle class="cls-5" cx="143.99" cy="90.1" r="2.11"/><circle class="cls-5" cx="169.83" cy="88.36" r="2.11"/><circle class="cls-5" cx="163.75" cy="90.1" r="2.11"/><circle class="cls-5" cx="150.9" cy="90.1" r="2.11"/><circle class="cls-5" cx="158.15" cy="76.99" r="2.11"/><circle class="cls-5" cx="165.92" cy="80.64" r="2.11"/><circle class="cls-5" cx="149.1" cy="82.77" r="2.11"/><polygon class="cls-3" points="116.98 100.81 145.67 99.71 148.53 112.55 172.95 132.52 137.9 124.6 116.98 100.81"/><polyline class="cls-5" points="176.02 71.05 176.82 92.94 171.52 93.09 171.52 108.96 165.51 108.96 165.51 117.5 162.68 117.5 162.68 98.53 168.51 90.25"/><polyline class="cls-5" points="152.33 92.09 157.26 96.45 157.26 117.5 159.93 117.5 159.93 96.45 162.68 92.09"/><polyline class="cls-5" points="153.77 117.5 153.77 96.49 145.67 91.31"/><circle class="cls-1" cx="157.26" cy="88.36" r="60.98"/><g class="cls-7"><g class="cls-7"><path class="cls-6" d="M84.4,102.86c0,18.91-3.7,32-11.1,39.27-7.4,7.28-18.44,10.91-33.12,10.91-19.23,0-32.62-10.03-40.18-30.09l15.09-6.54c5.58,15.25,14.52,22.88,26.82,22.88,7.82,0,14.13-2.29,18.94-6.87,4.81-4.58,7.21-13.92,7.21-28.02V0h16.34v102.86Z"/></g><g class="cls-7"><path class="cls-6" d="M230.33,0h15.19v56.24c3.08-3.21,7.4-5.85,12.98-7.93,5.58-2.08,11.63-3.13,18.17-3.13,13.27,0,23.44,4.61,30.52,13.84,7.08,9.23,10.62,21.92,10.62,38.07,0,16.98-4.13,30.41-12.4,40.28-8.27,9.87-22.17,14.8-41.72,14.8-4.55,0-10.03-.24-16.44-.72-6.41-.48-12.05-1.01-16.92-1.58V0ZM245.52,136.8c5.13,2.63,12.21,3.94,21.25,3.94,12.24,0,21.13-4.18,26.68-12.55,5.54-8.36,8.32-18.15,8.32-29.37,0-13.2-2.56-23.28-7.69-30.23-5.13-6.95-12.18-10.43-21.15-10.43-5.38,0-10.53.8-15.43,2.4-4.9,1.6-8.89,3.56-11.97,5.86v70.37Z"/></g></g><polygon class="cls-2" points="114.51 133.15 96.27 147.13 107.78 159.04 123.16 138.93 114.51 133.15"/></svg>