<?xml version="1.0" encoding="UTF-8"?><svg xmlns="http://www.w3.org/2000/svg" width="21.04cm" height="29.74cm" viewBox="0 0 596.28 842.89"><defs><style>.cls-1{fill:#182f57;stroke:#231f20;stroke-miterlimit:10;}.cls-2{stroke-width:7.74px;}.cls-2,.cls-3,.cls-4,.cls-5,.cls-6{stroke:#fff;stroke-miterlimit:10;}.cls-2,.cls-5,.cls-6{fill:none;}.cls-3{stroke-width:3.32px;}.cls-3,.cls-4,.cls-7{fill:#fff;}.cls-8{isolation:isolate;}.cls-4,.cls-5{stroke-width:.73px;}.cls-6{stroke-width:1.47px;}</style></defs><g id="Layer_2"><rect class="cls-1" x=".5" y=".5" width="595.28" height="841.89"/></g><g id="Layer_1"><line class="cls-5" x1="317.43" y1="401.18" x2="317.09" y2="407.69"/><polyline class="cls-4" points="276.5 406.43 275.55 393.26 318.05 389.46 317.43 401.18"/><polyline class="cls-4" points="317.09 407.69 342.14 413.72 275.87 412.49 256.21 412.14 276.5 406.43"/><path class="cls-6" d="M278.41,441.63l-2.54-29.14,2.54,29.14Z"/><line class="cls-6" x1="289.98" y1="423.93" x2="295.16" y2="419.65"/><line class="cls-6" x1="303.02" y1="421.52" x2="299.34" y2="419.38"/><circle class="cls-6" cx="283.22" cy="432.02" r="2.11"/><circle class="cls-6" cx="309.07" cy="430.28" r="2.11"/><circle class="cls-6" cx="302.98" cy="432.02" r="2.11"/><circle class="cls-6" cx="290.14" cy="432.02" r="2.11"/><circle class="cls-6" cx="297.38" cy="418.92" r="2.11"/><circle class="cls-6" cx="305.15" cy="422.56" r="2.11"/><circle class="cls-6" cx="288.33" cy="424.69" r="2.11"/><polygon class="cls-4" points="256.21 442.74 284.9 441.63 287.77 454.48 312.18 474.45 277.13 466.53 256.21 442.74"/><polyline class="cls-6" points="315.25 412.97 316.05 434.87 310.75 435.02 310.75 450.88 304.74 450.88 304.74 459.42 301.91 459.42 301.91 440.46 307.74 432.17"/><polyline class="cls-6" points="291.57 434.02 296.49 438.38 296.49 459.42 299.17 459.42 299.17 438.38 301.91 434.02"/><polyline class="cls-6" points="293 459.42 293 438.41 284.9 433.23"/><circle class="cls-2" cx="296.49" cy="430.28" r="60.98"/><g class="cls-8"><g class="cls-8"><path class="cls-7" d="M223.64,444.79c0,18.91-3.7,32-11.1,39.27-7.4,7.28-18.44,10.91-33.12,10.91-19.23,0-32.62-10.03-40.18-30.09l15.09-6.54c5.58,15.25,14.52,22.88,26.82,22.88,7.82,0,14.13-2.29,18.94-6.87,4.81-4.58,7.21-13.92,7.21-28.02v-104.4h16.34v102.86Z"/></g><g class="cls-8"><path class="cls-7" d="M369.56,341.93h15.19v56.24c3.08-3.21,7.4-5.85,12.98-7.93,5.58-2.08,11.63-3.13,18.17-3.13,13.27,0,23.44,4.61,30.52,13.84,7.08,9.23,10.62,21.92,10.62,38.07,0,16.98-4.13,30.41-12.4,40.28-8.27,9.87-22.17,14.8-41.72,14.8-4.55,0-10.03-.24-16.44-.72-6.41-.48-12.05-1.01-16.92-1.58v-149.87ZM384.75,478.72c5.13,2.63,12.21,3.94,21.25,3.94,12.24,0,21.13-4.18,26.68-12.55,5.54-8.36,8.32-18.15,8.32-29.37,0-13.2-2.56-23.28-7.69-30.23-5.13-6.95-12.18-10.43-21.15-10.43-5.38,0-10.53.8-15.43,2.4-4.9,1.6-8.89,3.56-11.97,5.86v70.37Z"/></g></g><polygon class="cls-3" points="253.74 475.08 235.51 489.05 247.01 500.96 262.39 480.86 253.74 475.08"/></g></svg>